G04*
G04 #@! TF.GenerationSoftware,Altium Limited,Altium Designer,26.3.0 (6)*
G04*
G04 Layer_Color=16711935*
%FSLAX44Y44*%
%MOMM*%
G71*
G04*
G04 #@! TF.SameCoordinates,69D348A2-C4DC-4F2E-8D04-6DF34967F882*
G04*
G04*
G04 #@! TF.FilePolarity,Positive*
G04*
G01*
G75*
%ADD13C,0.1000*%
D13*
X72500Y109500D02*
X81500D01*
X72500Y92500D02*
X81500D01*
Y109500D01*
X72500Y92500D02*
Y109500D01*
X81500Y134500D02*
Y151500D01*
X72500Y134500D02*
Y151500D01*
X81500D01*
X72500Y134500D02*
X81500D01*
X150500Y172500D02*
Y189500D01*
X141500Y172500D02*
Y189500D01*
X150500D01*
X141500Y172500D02*
X150500D01*
X135375Y278540D02*
Y295540D01*
X148375Y278540D02*
Y295540D01*
X135375D02*
X148375D01*
X135375Y278540D02*
X148375D01*
X59500Y78500D02*
Y95500D01*
X50500Y78500D02*
Y95500D01*
X59500D01*
X50500Y78500D02*
X59500D01*
X106750Y238500D02*
Y247500D01*
X123250Y238500D02*
Y247500D01*
X106750D02*
X123250D01*
X106750Y238500D02*
X123250D01*
X20500Y128500D02*
X29500D01*
X20500Y145500D02*
X29500D01*
X20500Y128500D02*
Y145500D01*
X29500Y128500D02*
Y145500D01*
X225500Y69500D02*
X234500D01*
X225500Y86500D02*
X234500D01*
X225500Y69500D02*
Y86500D01*
X234500Y69500D02*
Y86500D01*
X205500Y69500D02*
X214500D01*
X205500Y86500D02*
X214500D01*
X205500Y69500D02*
Y86500D01*
X214500Y69500D02*
Y86500D01*
X139250Y65000D02*
X148750D01*
X139250Y49000D02*
X148750D01*
Y65000D01*
X139250Y49000D02*
Y65000D01*
X88750Y73500D02*
X105250D01*
X88750Y82500D02*
X105250D01*
Y73500D02*
Y82500D01*
X88750Y73500D02*
Y82500D01*
X176250Y65000D02*
X185750D01*
X176250Y49000D02*
X185750D01*
Y65000D01*
X176250Y49000D02*
Y65000D01*
X16500Y78500D02*
X25500D01*
X16500Y95500D02*
X25500D01*
X16500Y78500D02*
Y95500D01*
X25500Y78500D02*
Y95500D01*
X33500Y78500D02*
X42500D01*
X33500Y95500D02*
X42500D01*
X33500Y78500D02*
Y95500D01*
X42500Y78500D02*
Y95500D01*
X89500Y107500D02*
X98500D01*
X89500Y124500D02*
X98500D01*
X89500Y107500D02*
Y124500D01*
X98500Y107500D02*
Y124500D01*
X92500Y140500D02*
X101500D01*
X92500Y157500D02*
X101500D01*
X92500Y140500D02*
Y157500D01*
X101500Y140500D02*
Y157500D01*
X156500Y50500D02*
X165500D01*
X156500Y67500D02*
X165500D01*
X156500Y50500D02*
Y67500D01*
X165500Y50500D02*
Y67500D01*
X81500Y188500D02*
X90500D01*
X81500Y171500D02*
X90500D01*
Y188500D01*
X81500Y171500D02*
Y188500D01*
X98500Y178500D02*
X107500D01*
X98500Y195500D02*
X107500D01*
X98500Y178500D02*
Y195500D01*
X107500Y178500D02*
Y195500D01*
X177500Y167500D02*
Y176500D01*
X194500Y167500D02*
Y176500D01*
X177500D02*
X194500D01*
X177500Y167500D02*
X194500D01*
X216500Y226500D02*
X233500D01*
X216500Y235500D02*
X233500D01*
Y226500D02*
Y235500D01*
X216500Y226500D02*
Y235500D01*
X235500Y267500D02*
Y284500D01*
X244500Y267500D02*
Y284500D01*
X235500Y267500D02*
X244500D01*
X235500Y284500D02*
X244500D01*
X223500Y242500D02*
X240500D01*
X223500Y251500D02*
X240500D01*
Y242500D02*
Y251500D01*
X223500Y242500D02*
Y251500D01*
X177500Y280500D02*
Y297500D01*
X186500Y280500D02*
Y297500D01*
X177500Y280500D02*
X186500D01*
X177500Y297500D02*
X186500D01*
X107750Y315500D02*
X124250D01*
X107750Y306500D02*
X124250D01*
X107750D02*
Y315500D01*
X124250Y306500D02*
Y315500D01*
X134500Y316000D02*
X152500D01*
X134500Y306000D02*
X152500D01*
X134500D02*
Y316000D01*
X152500Y306000D02*
Y316000D01*
X110500Y278500D02*
Y295500D01*
X119500Y278500D02*
Y295500D01*
X110500Y278500D02*
X119500D01*
X110500Y295500D02*
X119500D01*
X301250Y312000D02*
Y321000D01*
X284750Y312000D02*
Y321000D01*
Y312000D02*
X301250D01*
X284750Y321000D02*
X301250D01*
Y294500D02*
Y303500D01*
X284750Y294500D02*
Y303500D01*
Y294500D02*
X301250D01*
X284750Y303500D02*
X301250D01*
X271250Y169500D02*
Y178500D01*
X254750Y169500D02*
Y178500D01*
Y169500D02*
X271250D01*
X254750Y178500D02*
X271250D01*
Y149500D02*
Y158500D01*
X254750Y149500D02*
Y158500D01*
Y149500D02*
X271250D01*
X254750Y158500D02*
X271250D01*
M02*
