G04*
G04 #@! TF.GenerationSoftware,Altium Limited,Altium Designer,26.3.0 (6)*
G04*
G04 Layer_Color=2752767*
%FSLAX44Y44*%
%MOMM*%
G71*
G04*
G04 #@! TF.SameCoordinates,69D348A2-C4DC-4F2E-8D04-6DF34967F882*
G04*
G04*
G04 #@! TF.FilePolarity,Positive*
G04*
G01*
G75*
%ADD64C,0.1270*%
%ADD65C,0.1693*%
D64*
X272250Y202170D02*
X267170Y212330D01*
X277330D01*
X272250Y202170D01*
Y261670D02*
X267170Y271830D01*
X277330D01*
X272250Y261670D01*
X258750D02*
X253670Y271830D01*
X263830D01*
X258750Y261670D01*
Y202170D02*
X253670Y212330D01*
X263830D01*
X258750Y202170D01*
X297270Y275170D02*
Y285330D01*
X307430D01*
Y275170D01*
X297270D01*
Y188670D02*
Y198830D01*
X307430D01*
Y188670D01*
X297270D01*
X258750Y210670D02*
X253670Y220830D01*
X263830D01*
X258750Y210670D01*
Y219170D02*
X253670Y229330D01*
X263830D01*
X258750Y219170D01*
Y227670D02*
X253670Y237830D01*
X263830D01*
X258750Y227670D01*
Y236170D02*
X253670Y246330D01*
X263830D01*
X258750Y236170D01*
Y244670D02*
X253670Y254830D01*
X263830D01*
X258750Y244670D01*
Y253170D02*
X253670Y263330D01*
X263830D01*
X258750Y253170D01*
X272250D02*
X267170Y263330D01*
X277330D01*
X272250Y253170D01*
Y244670D02*
X267170Y254830D01*
X277330D01*
X272250Y244670D01*
Y236170D02*
X267170Y246330D01*
X277330D01*
X272250Y236170D01*
Y227670D02*
X267170Y237830D01*
X277330D01*
X272250Y227670D01*
Y219170D02*
X267170Y229330D01*
X277330D01*
X272250Y219170D01*
Y210670D02*
X267170Y220830D01*
X277330D01*
X272250Y210670D01*
X92000Y92920D02*
X94540Y95460D01*
X97080D01*
X94540Y98000D01*
X97080Y100540D01*
X94540D01*
X92000Y103080D01*
X89460Y100540D01*
X86920D01*
X89460Y98000D01*
X86920Y95460D01*
X89460D01*
X92000Y92920D01*
X80000Y61920D02*
X82540Y64460D01*
X85080D01*
X82540Y67000D01*
X85080Y69540D01*
X82540D01*
X80000Y72080D01*
X77460Y69540D01*
X74920D01*
X77460Y67000D01*
X74920Y64460D01*
X77460D01*
X80000Y61920D01*
X85040Y156920D02*
X87580Y159460D01*
X90120D01*
X87580Y162000D01*
X90120Y164540D01*
X87580D01*
X85040Y167080D01*
X82500Y164540D01*
X79960D01*
X82500Y162000D01*
X79960Y159460D01*
X82500D01*
X85040Y156920D01*
X88000Y237920D02*
X90540Y240460D01*
X93080D01*
X90540Y243000D01*
X93080Y245540D01*
X90540D01*
X88000Y248080D01*
X85460Y245540D01*
X82920D01*
X85460Y243000D01*
X82920Y240460D01*
X85460D01*
X88000Y237920D01*
X79000Y73920D02*
X81540Y76460D01*
X84080D01*
X81540Y79000D01*
X84080Y81540D01*
X81540D01*
X79000Y84080D01*
X76460Y81540D01*
X73920D01*
X76460Y79000D01*
X73920Y76460D01*
X76460D01*
X79000Y73920D01*
X220000Y213920D02*
X222540Y216460D01*
X225080D01*
X222540Y219000D01*
X225080Y221540D01*
X222540D01*
X220000Y224080D01*
X217460Y221540D01*
X214920D01*
X217460Y219000D01*
X214920Y216460D01*
X217460D01*
X220000Y213920D01*
X144500Y237920D02*
X147040Y240460D01*
X149580D01*
X147040Y243000D01*
X149580Y245540D01*
X147040D01*
X144500Y248080D01*
X141960Y245540D01*
X139420D01*
X141960Y243000D01*
X139420Y240460D01*
X141960D01*
X144500Y237920D01*
X167000Y165920D02*
X169540Y168460D01*
X172080D01*
X169540Y171000D01*
X172080Y173540D01*
X169540D01*
X167000Y176080D01*
X164460Y173540D01*
X161920D01*
X164460Y171000D01*
X161920Y168460D01*
X164460D01*
X167000Y165920D01*
X205000Y270920D02*
X207540Y273460D01*
X210080D01*
X207540Y276000D01*
X210080Y278540D01*
X207540D01*
X205000Y281080D01*
X202460Y278540D01*
X199920D01*
X202460Y276000D01*
X199920Y273460D01*
X202460D01*
X205000Y270920D01*
X195000Y234920D02*
X197540Y237460D01*
X200080D01*
X197540Y240000D01*
X200080Y242540D01*
X197540D01*
X195000Y245080D01*
X192460Y242540D01*
X189920D01*
X192460Y240000D01*
X189920Y237460D01*
X192460D01*
X195000Y234920D01*
X66000Y95920D02*
X68540Y98460D01*
X71080D01*
X68540Y101000D01*
X71080Y103540D01*
X68540D01*
X66000Y106080D01*
X63460Y103540D01*
X60920D01*
X63460Y101000D01*
X60920Y98460D01*
X63460D01*
X66000Y95920D01*
X215000Y96960D02*
X217540Y99500D01*
X220080D01*
X217540Y102040D01*
X220080Y104580D01*
X217540D01*
X215000Y107120D01*
X212460Y104580D01*
X209920D01*
X212460Y102040D01*
X209920Y99500D01*
X212460D01*
X215000Y96960D01*
X278175Y109095D02*
X280715Y111635D01*
X283255D01*
X280715Y114175D01*
X283255Y116715D01*
X280715D01*
X278175Y119255D01*
X275635Y116715D01*
X273095D01*
X275635Y114175D01*
X273095Y111635D01*
X275635D01*
X278175Y109095D01*
D65*
X273630Y280250D02*
G03*
X273630Y280250I-5080J0D01*
G01*
Y193750D02*
G03*
X273630Y193750I-5080J0D01*
G01*
M02*
