G04*
G04 #@! TF.GenerationSoftware,Altium Limited,Altium Designer,26.3.0 (6)*
G04*
G04 Layer_Color=128*
%FSLAX44Y44*%
%MOMM*%
G71*
G04*
G04 #@! TF.SameCoordinates,69D348A2-C4DC-4F2E-8D04-6DF34967F882*
G04*
G04*
G04 #@! TF.FilePolarity,Positive*
G04*
G01*
G75*
%ADD64C,0.1270*%
D64*
X270250Y207250D02*
X274250D01*
X272250Y205250D02*
Y209250D01*
X270250Y266750D02*
X274250D01*
X272250Y264750D02*
Y268750D01*
X256750Y266750D02*
X260750D01*
X258750Y264750D02*
Y268750D01*
X256750Y207250D02*
X260750D01*
X258750Y205250D02*
Y209250D01*
X258050Y280250D02*
X279050D01*
X268550Y269750D02*
Y290750D01*
X258050Y193750D02*
X279050D01*
X268550Y183250D02*
Y204250D01*
X295350Y280250D02*
X309350D01*
X302350Y273250D02*
Y287250D01*
X295350Y193750D02*
X309350D01*
X302350Y186750D02*
Y200750D01*
X256750Y215750D02*
X260750D01*
X258750Y213750D02*
Y217750D01*
X256750Y224250D02*
X260750D01*
X258750Y222250D02*
Y226250D01*
X256750Y232750D02*
X260750D01*
X258750Y230750D02*
Y234750D01*
X256750Y241250D02*
X260750D01*
X258750Y239250D02*
Y243250D01*
X256750Y249750D02*
X260750D01*
X258750Y247750D02*
Y251750D01*
X256750Y258250D02*
X260750D01*
X258750Y256250D02*
Y260250D01*
X270250Y258250D02*
X274250D01*
X272250Y256250D02*
Y260250D01*
X270250Y249750D02*
X274250D01*
X272250Y247750D02*
Y251750D01*
X270250Y241250D02*
X274250D01*
X272250Y239250D02*
Y243250D01*
X270250Y232750D02*
X274250D01*
X272250Y230750D02*
Y234750D01*
X270250Y224250D02*
X274250D01*
X272250Y222250D02*
Y226250D01*
X270250Y215750D02*
X274250D01*
X272250Y213750D02*
Y217750D01*
X90500Y98000D02*
X93500D01*
X92000Y96500D02*
Y99500D01*
X78500Y67000D02*
X81500D01*
X80000Y65500D02*
Y68500D01*
X83540Y162000D02*
X86540D01*
X85040Y160500D02*
Y163500D01*
X86500Y243000D02*
X89500D01*
X88000Y241500D02*
Y244500D01*
X77500Y79000D02*
X80500D01*
X79000Y77500D02*
Y80500D01*
X218500Y219000D02*
X221500D01*
X220000Y217500D02*
Y220500D01*
X143000Y243000D02*
X146000D01*
X144500Y241500D02*
Y244500D01*
X165500Y171000D02*
X168500D01*
X167000Y169500D02*
Y172500D01*
X203500Y276000D02*
X206500D01*
X205000Y274500D02*
Y277500D01*
X193500Y240000D02*
X196500D01*
X195000Y238500D02*
Y241500D01*
X64500Y101000D02*
X67500D01*
X66000Y99500D02*
Y102500D01*
X213500Y102040D02*
X216500D01*
X215000Y100540D02*
Y103540D01*
X276675Y114175D02*
X279675D01*
X278175Y112675D02*
Y115675D01*
M02*
