G04*
G04 #@! TF.GenerationSoftware,Altium Limited,Altium Designer,26.3.0 (6)*
G04*
G04 Layer_Color=255*
%FSLAX44Y44*%
%MOMM*%
G71*
G04*
G04 #@! TF.SameCoordinates,2AEB3867-C50B-4920-A8BC-998893CE9B29*
G04*
G04*
G04 #@! TF.FilePolarity,Positive*
G04*
G01*
G75*
%ADD19R,0.7500X0.6500*%
%ADD20R,1.4000X2.1000*%
%ADD21R,0.7000X0.4500*%
%ADD22R,1.1000X0.8000*%
%ADD23R,2.1000X1.4000*%
%ADD24R,0.8000X1.1000*%
%ADD25R,1.3000X1.4000*%
%ADD26R,0.8500X0.2500*%
%ADD27R,0.7000X0.5000*%
G04:AMPARAMS|DCode=28|XSize=0.9096mm|YSize=0.2393mm|CornerRadius=0.1196mm|HoleSize=0mm|Usage=FLASHONLY|Rotation=180.000|XOffset=0mm|YOffset=0mm|HoleType=Round|Shape=RoundedRectangle|*
%AMROUNDEDRECTD28*
21,1,0.9096,0.0000,0,0,180.0*
21,1,0.6704,0.2393,0,0,180.0*
1,1,0.2393,-0.3352,0.0000*
1,1,0.2393,0.3352,0.0000*
1,1,0.2393,0.3352,0.0000*
1,1,0.2393,-0.3352,0.0000*
%
%ADD28ROUNDEDRECTD28*%
%ADD29R,2.0000X0.8000*%
%ADD30R,1.1900X1.4700*%
G04:AMPARAMS|DCode=31|XSize=0.8182mm|YSize=0.1925mm|CornerRadius=0.0962mm|HoleSize=0mm|Usage=FLASHONLY|Rotation=0.000|XOffset=0mm|YOffset=0mm|HoleType=Round|Shape=RoundedRectangle|*
%AMROUNDEDRECTD31*
21,1,0.8182,0.0000,0,0,0.0*
21,1,0.6257,0.1925,0,0,0.0*
1,1,0.1925,0.3129,0.0000*
1,1,0.1925,-0.3129,0.0000*
1,1,0.1925,-0.3129,0.0000*
1,1,0.1925,0.3129,0.0000*
%
%ADD31ROUNDEDRECTD31*%
G04:AMPARAMS|DCode=32|XSize=0.1925mm|YSize=0.8182mm|CornerRadius=0.0962mm|HoleSize=0mm|Usage=FLASHONLY|Rotation=0.000|XOffset=0mm|YOffset=0mm|HoleType=Round|Shape=RoundedRectangle|*
%AMROUNDEDRECTD32*
21,1,0.1925,0.6257,0,0,0.0*
21,1,0.0000,0.8182,0,0,0.0*
1,1,0.1925,0.0000,-0.3129*
1,1,0.1925,0.0000,-0.3129*
1,1,0.1925,0.0000,0.3129*
1,1,0.1925,0.0000,0.3129*
%
%ADD32ROUNDEDRECTD32*%
%ADD33R,0.8182X0.1925*%
%ADD34R,0.7000X2.0000*%
%ADD35R,0.5000X0.5000*%
%ADD36R,0.9096X0.2393*%
G04:AMPARAMS|DCode=37|XSize=0.2393mm|YSize=0.9096mm|CornerRadius=0.1196mm|HoleSize=0mm|Usage=FLASHONLY|Rotation=180.000|XOffset=0mm|YOffset=0mm|HoleType=Round|Shape=RoundedRectangle|*
%AMROUNDEDRECTD37*
21,1,0.2393,0.6704,0,0,180.0*
21,1,0.0000,0.9096,0,0,180.0*
1,1,0.2393,0.0000,0.3352*
1,1,0.2393,0.0000,0.3352*
1,1,0.2393,0.0000,-0.3352*
1,1,0.2393,0.0000,-0.3352*
%
%ADD37ROUNDEDRECTD37*%
%ADD38R,1.0000X1.0000*%
%ADD39R,1.0000X0.5000*%
%ADD40R,0.6400X1.0200*%
G04:AMPARAMS|DCode=41|XSize=0.7mm|YSize=0.45mm|CornerRadius=0.1125mm|HoleSize=0mm|Usage=FLASHONLY|Rotation=180.000|XOffset=0mm|YOffset=0mm|HoleType=Round|Shape=RoundedRectangle|*
%AMROUNDEDRECTD41*
21,1,0.7000,0.2250,0,0,180.0*
21,1,0.4750,0.4500,0,0,180.0*
1,1,0.2250,-0.2375,0.1125*
1,1,0.2250,0.2375,0.1125*
1,1,0.2250,0.2375,-0.1125*
1,1,0.2250,-0.2375,-0.1125*
%
%ADD41ROUNDEDRECTD41*%
%ADD51R,2.5500X2.5500*%
%ADD52R,4.0500X4.0500*%
%ADD61C,0.7000*%
G04:AMPARAMS|DCode=62|XSize=0.95mm|YSize=2.45mm|CornerRadius=0.475mm|HoleSize=0mm|Usage=FLASHONLY|Rotation=90.000|XOffset=0mm|YOffset=0mm|HoleType=Round|Shape=RoundedRectangle|*
%AMROUNDEDRECTD62*
21,1,0.9500,1.5000,0,0,90.0*
21,1,0.0000,2.4500,0,0,90.0*
1,1,0.9500,0.7500,0.0000*
1,1,0.9500,0.7500,0.0000*
1,1,0.9500,-0.7500,0.0000*
1,1,0.9500,-0.7500,0.0000*
%
%ADD62ROUNDEDRECTD62*%
G04:AMPARAMS|DCode=63|XSize=0.95mm|YSize=1.75mm|CornerRadius=0.475mm|HoleSize=0mm|Usage=FLASHONLY|Rotation=90.000|XOffset=0mm|YOffset=0mm|HoleType=Round|Shape=RoundedRectangle|*
%AMROUNDEDRECTD63*
21,1,0.9500,0.8000,0,0,90.0*
21,1,0.0000,1.7500,0,0,90.0*
1,1,0.9500,0.4000,0.0000*
1,1,0.9500,0.4000,0.0000*
1,1,0.9500,-0.4000,0.0000*
1,1,0.9500,-0.4000,0.0000*
%
%ADD63ROUNDEDRECTD63*%
D19*
X119500Y197000D02*
D03*
X130000D02*
D03*
X119500Y189500D02*
D03*
X130000D02*
D03*
D20*
X46700Y224500D02*
D03*
Y315500D02*
D03*
X91300D02*
D03*
Y224500D02*
D03*
D21*
X290500Y127050D02*
D03*
Y101650D02*
D03*
X249500Y88950D02*
D03*
Y101650D02*
D03*
Y114350D02*
D03*
Y127050D02*
D03*
X290500Y114350D02*
D03*
D22*
X25000Y130000D02*
D03*
X230000Y71000D02*
D03*
X210000D02*
D03*
X21000Y80000D02*
D03*
X38000D02*
D03*
X94000Y109000D02*
D03*
X97000Y142000D02*
D03*
X161000Y52000D02*
D03*
X86000Y187000D02*
D03*
X103000Y194000D02*
D03*
X240000Y283000D02*
D03*
X182000Y296000D02*
D03*
X115000Y294000D02*
D03*
X55000Y80000D02*
D03*
X146000Y188000D02*
D03*
X77000Y136000D02*
D03*
Y108000D02*
D03*
X25000Y144000D02*
D03*
X182000Y282000D02*
D03*
X181000Y64000D02*
D03*
X161000Y66000D02*
D03*
X97000Y156000D02*
D03*
X86000Y173000D02*
D03*
X21000Y94000D02*
D03*
X38000D02*
D03*
X55000D02*
D03*
X77000Y94000D02*
D03*
Y150000D02*
D03*
X146000Y174000D02*
D03*
X115000Y280000D02*
D03*
X240000Y269000D02*
D03*
X210000Y85000D02*
D03*
X230000D02*
D03*
X144000Y64000D02*
D03*
Y50000D02*
D03*
X181000D02*
D03*
X94000Y123000D02*
D03*
X103000Y180000D02*
D03*
D23*
X120500Y14700D02*
D03*
X29500D02*
D03*
Y59300D02*
D03*
X120500D02*
D03*
D24*
X193000Y172000D02*
D03*
X232000Y231000D02*
D03*
X239000Y247000D02*
D03*
X151000Y311000D02*
D03*
X300500Y316500D02*
D03*
Y299000D02*
D03*
X270500Y174000D02*
D03*
Y154000D02*
D03*
X218000Y231000D02*
D03*
X179000Y172000D02*
D03*
X122500Y243000D02*
D03*
X109000Y311000D02*
D03*
X89500Y78000D02*
D03*
X225000Y247000D02*
D03*
X107500Y243000D02*
D03*
X104500Y78000D02*
D03*
X123000Y311000D02*
D03*
X136000Y311000D02*
D03*
X285500Y316500D02*
D03*
Y299000D02*
D03*
X255500Y174000D02*
D03*
Y154000D02*
D03*
D25*
X247500Y305000D02*
D03*
X218500D02*
D03*
D26*
X131125Y287040D02*
D03*
X152625D02*
D03*
X131125Y282040D02*
D03*
Y292040D02*
D03*
X152625Y282040D02*
D03*
Y292040D02*
D03*
D27*
X158575Y36000D02*
D03*
X211575Y49000D02*
D03*
D28*
X201012Y202500D02*
D03*
Y217500D02*
D03*
Y207500D02*
D03*
Y222500D02*
D03*
X162988D02*
D03*
Y217500D02*
D03*
Y212500D02*
D03*
Y207500D02*
D03*
Y202500D02*
D03*
Y197500D02*
D03*
X201012Y212500D02*
D03*
D29*
X18000Y208000D02*
D03*
Y164000D02*
D03*
D30*
X42450Y142000D02*
D03*
X59550D02*
D03*
D31*
X190271Y121000D02*
D03*
Y97000D02*
D03*
Y109000D02*
D03*
Y117000D02*
D03*
Y113000D02*
D03*
Y105000D02*
D03*
Y101000D02*
D03*
Y149000D02*
D03*
Y145000D02*
D03*
Y141000D02*
D03*
Y137000D02*
D03*
Y133000D02*
D03*
Y129000D02*
D03*
Y125000D02*
D03*
X121728Y97000D02*
D03*
Y101000D02*
D03*
Y105000D02*
D03*
Y109000D02*
D03*
Y113000D02*
D03*
Y117000D02*
D03*
Y121000D02*
D03*
Y125000D02*
D03*
Y129000D02*
D03*
Y133000D02*
D03*
Y141000D02*
D03*
Y145000D02*
D03*
Y137000D02*
D03*
D32*
X138000Y157271D02*
D03*
X142000D02*
D03*
X146000D02*
D03*
X150000D02*
D03*
X154000D02*
D03*
X158000D02*
D03*
X162000D02*
D03*
X166000D02*
D03*
X174000D02*
D03*
X178000D02*
D03*
X182000D02*
D03*
Y88729D02*
D03*
X178000D02*
D03*
X174000D02*
D03*
X170000D02*
D03*
X166000D02*
D03*
X162000D02*
D03*
X158000D02*
D03*
X154000D02*
D03*
X146000D02*
D03*
X142000D02*
D03*
X138000D02*
D03*
X134000D02*
D03*
X130000D02*
D03*
Y157271D02*
D03*
X150000Y88729D02*
D03*
X134000Y157271D02*
D03*
X170000D02*
D03*
D33*
X121728Y149000D02*
D03*
D34*
X180500Y259000D02*
D03*
X159500D02*
D03*
D35*
X70500Y122000D02*
D03*
X79500D02*
D03*
D36*
X201012Y197500D02*
D03*
D37*
X194500Y229012D02*
D03*
X189500D02*
D03*
X184500D02*
D03*
X179500D02*
D03*
X174500D02*
D03*
X169500D02*
D03*
Y190987D02*
D03*
X174500D02*
D03*
X179500D02*
D03*
X184500D02*
D03*
X189500D02*
D03*
X194500D02*
D03*
D38*
X218000Y283000D02*
D03*
Y265000D02*
D03*
D39*
X200425Y49000D02*
D03*
X147425Y36000D02*
D03*
D40*
X117200Y173000D02*
D03*
X130000D02*
D03*
D41*
X290500Y88950D02*
D03*
D51*
X182000Y210000D02*
D03*
D52*
X156000Y123000D02*
D03*
D61*
X272250Y207250D02*
D03*
Y266750D02*
D03*
X258750D02*
D03*
Y207250D02*
D03*
Y215750D02*
D03*
Y224250D02*
D03*
Y232750D02*
D03*
Y241250D02*
D03*
Y249750D02*
D03*
Y258250D02*
D03*
X272250D02*
D03*
Y249750D02*
D03*
Y241250D02*
D03*
Y232750D02*
D03*
Y224250D02*
D03*
Y215750D02*
D03*
D62*
X268550Y280250D02*
D03*
Y193750D02*
D03*
D63*
X302350Y280250D02*
D03*
Y193750D02*
D03*
M02*
