G04*
G04 #@! TF.GenerationSoftware,Altium Limited,Altium Designer,26.3.0 (6)*
G04*
G04 Layer_Physical_Order=2*
G04 Layer_Color=16711680*
%FSLAX44Y44*%
%MOMM*%
G71*
G04*
G04 #@! TF.SameCoordinates,2AEB3867-C50B-4920-A8BC-998893CE9B29*
G04*
G04*
G04 #@! TF.FilePolarity,Positive*
G04*
G01*
G75*
%ADD14C,0.2540*%
%ADD61C,0.7000*%
G04:AMPARAMS|DCode=62|XSize=0.95mm|YSize=2.45mm|CornerRadius=0.475mm|HoleSize=0mm|Usage=FLASHONLY|Rotation=90.000|XOffset=0mm|YOffset=0mm|HoleType=Round|Shape=RoundedRectangle|*
%AMROUNDEDRECTD62*
21,1,0.9500,1.5000,0,0,90.0*
21,1,0.0000,2.4500,0,0,90.0*
1,1,0.9500,0.7500,0.0000*
1,1,0.9500,0.7500,0.0000*
1,1,0.9500,-0.7500,0.0000*
1,1,0.9500,-0.7500,0.0000*
%
%ADD62ROUNDEDRECTD62*%
G04:AMPARAMS|DCode=63|XSize=0.95mm|YSize=1.75mm|CornerRadius=0.475mm|HoleSize=0mm|Usage=FLASHONLY|Rotation=90.000|XOffset=0mm|YOffset=0mm|HoleType=Round|Shape=RoundedRectangle|*
%AMROUNDEDRECTD63*
21,1,0.9500,0.8000,0,0,90.0*
21,1,0.0000,1.7500,0,0,90.0*
1,1,0.9500,0.4000,0.0000*
1,1,0.9500,0.4000,0.0000*
1,1,0.9500,-0.4000,0.0000*
1,1,0.9500,-0.4000,0.0000*
%
%ADD63ROUNDEDRECTD63*%
G36*
X314961Y280837D02*
X312421Y280587D01*
X312021Y282599D01*
X310690Y284590D01*
X308699Y285921D01*
X306350Y286388D01*
X302985D01*
Y280250D01*
Y274112D01*
X306350D01*
X308699Y274579D01*
X310690Y275910D01*
X312021Y277901D01*
X312421Y279913D01*
X314961Y279663D01*
Y194337D01*
X312421Y194087D01*
X312021Y196099D01*
X310690Y198090D01*
X308699Y199421D01*
X306350Y199888D01*
X302985D01*
Y193750D01*
Y187612D01*
X306350D01*
X308699Y188079D01*
X310690Y189410D01*
X312021Y191401D01*
X312421Y193413D01*
X314961Y193163D01*
Y2000D01*
X3000D01*
Y167187D01*
X3323Y167510D01*
X4411Y167961D01*
X33000D01*
X33780Y168116D01*
X34442Y168558D01*
X34884Y169220D01*
X35039Y170000D01*
Y202000D01*
X34884Y202780D01*
X34442Y203442D01*
X33780Y203884D01*
X33000Y204039D01*
X3610D01*
X3000Y204292D01*
Y329000D01*
X314961D01*
Y280837D01*
D02*
G37*
%LPC*%
G36*
X276050Y286388D02*
X269185D01*
Y280885D01*
X282062D01*
X281721Y282599D01*
X280390Y284590D01*
X278399Y285921D01*
X276050Y286388D01*
D02*
G37*
G36*
X267915D02*
X261050D01*
X258701Y285921D01*
X256710Y284590D01*
X255379Y282599D01*
X255038Y280885D01*
X267915D01*
Y286388D01*
D02*
G37*
G36*
X301715D02*
X298350D01*
X296001Y285921D01*
X294010Y284590D01*
X292679Y282599D01*
X292338Y280885D01*
X301715D01*
Y286388D01*
D02*
G37*
G36*
Y279615D02*
X292338D01*
X292679Y277901D01*
X294010Y275910D01*
X296001Y274579D01*
X298350Y274112D01*
X301715D01*
Y279615D01*
D02*
G37*
G36*
X282062Y279615D02*
X269185D01*
Y274112D01*
X276050D01*
X278399Y274579D01*
X280390Y275910D01*
X281721Y277901D01*
X282062Y279615D01*
D02*
G37*
G36*
X267915D02*
X255038D01*
X255379Y277901D01*
X256710Y275910D01*
X258701Y274579D01*
X261050Y274112D01*
X267915D01*
Y279615D01*
D02*
G37*
G36*
X273199Y271520D02*
X272885D01*
Y267385D01*
X277020D01*
Y267699D01*
X276294Y269452D01*
X274952Y270794D01*
X273199Y271520D01*
D02*
G37*
G36*
X259699D02*
X259385D01*
Y267385D01*
X263520D01*
Y267699D01*
X262794Y269452D01*
X261452Y270794D01*
X259699Y271520D01*
D02*
G37*
G36*
X271615D02*
X271301D01*
X269548Y270794D01*
X268206Y269452D01*
X267480Y267699D01*
Y267385D01*
X271615D01*
Y271520D01*
D02*
G37*
G36*
X258115D02*
X257801D01*
X256048Y270794D01*
X254706Y269452D01*
X253980Y267699D01*
Y267385D01*
X258115D01*
Y271520D01*
D02*
G37*
G36*
X277020Y266115D02*
X272250D01*
X267480D01*
Y265801D01*
X268206Y264048D01*
X268763Y263320D01*
X267572Y261090D01*
X263428D01*
X262237Y263320D01*
X262794Y264048D01*
X263520Y265801D01*
Y266115D01*
X258750D01*
X253980D01*
Y265801D01*
X254706Y264048D01*
X255890Y262500D01*
X254706Y260952D01*
X253980Y259199D01*
Y257301D01*
X254706Y255548D01*
X255890Y254000D01*
X254706Y252452D01*
X253980Y250699D01*
Y248801D01*
X254706Y247048D01*
X255890Y245500D01*
X254706Y243952D01*
X253980Y242199D01*
Y240301D01*
X254706Y238548D01*
X255890Y237000D01*
X254706Y235452D01*
X253980Y233699D01*
Y231801D01*
X254706Y230048D01*
X255890Y228500D01*
X254706Y226952D01*
X253980Y225199D01*
Y223301D01*
X254706Y221548D01*
X255890Y220000D01*
X254706Y218452D01*
X253980Y216699D01*
Y214801D01*
X254706Y213048D01*
X255890Y211500D01*
X254706Y209952D01*
X253980Y208199D01*
Y207885D01*
X258750D01*
X263520D01*
Y208199D01*
X262794Y209952D01*
X261696Y211387D01*
X262593Y212785D01*
X262794Y213048D01*
X262853Y213191D01*
X262994Y213410D01*
X268006D01*
X268147Y213191D01*
X268206Y213048D01*
X268407Y212785D01*
X269304Y211387D01*
X268206Y209952D01*
X267480Y208199D01*
Y207885D01*
X272250D01*
X277020D01*
Y208199D01*
X276294Y209952D01*
X275110Y211500D01*
X276294Y213048D01*
X277020Y214801D01*
Y216699D01*
X276986Y216781D01*
X280831Y220627D01*
X281393Y221467D01*
X281590Y222458D01*
Y253472D01*
X281393Y254463D01*
X280831Y255303D01*
X277020Y259114D01*
Y259199D01*
X276294Y260952D01*
X275110Y262500D01*
X276294Y264048D01*
X277020Y265801D01*
Y266115D01*
D02*
G37*
G36*
X205949Y280770D02*
X204051D01*
X202298Y280044D01*
X200956Y278702D01*
X200230Y276949D01*
Y275051D01*
X200956Y273298D01*
X202298Y271956D01*
X202410Y271910D01*
Y251073D01*
X196061Y244723D01*
X195949Y244770D01*
X194051D01*
X192298Y244044D01*
X190956Y242702D01*
X190230Y240949D01*
Y239051D01*
X190956Y237298D01*
X192298Y235956D01*
X194051Y235230D01*
X195949D01*
X197702Y235956D01*
X199044Y237298D01*
X199770Y239051D01*
Y240949D01*
X199723Y241061D01*
X206831Y248169D01*
X207393Y249009D01*
X207590Y250000D01*
Y271910D01*
X207702Y271956D01*
X209044Y273298D01*
X209770Y275051D01*
Y276949D01*
X209044Y278702D01*
X207702Y280044D01*
X205949Y280770D01*
D02*
G37*
G36*
X88949Y247770D02*
X87051D01*
X85298Y247044D01*
X83956Y245702D01*
X83230Y243949D01*
Y242051D01*
X83277Y241939D01*
X64169Y222831D01*
X63607Y221991D01*
X63410Y221000D01*
Y105090D01*
X63298Y105044D01*
X61956Y103702D01*
X61230Y101949D01*
Y100051D01*
X61956Y98298D01*
X63298Y96956D01*
X65051Y96230D01*
X66949D01*
X68702Y96956D01*
X70044Y98298D01*
X70770Y100051D01*
Y101949D01*
X70044Y103702D01*
X68702Y105044D01*
X68590Y105090D01*
Y219927D01*
X86939Y238277D01*
X87051Y238230D01*
X88949D01*
X90702Y238956D01*
X92044Y240298D01*
X92770Y242051D01*
Y243949D01*
X92044Y245702D01*
X90702Y247044D01*
X88949Y247770D01*
D02*
G37*
G36*
X145449D02*
X143551D01*
X141798Y247044D01*
X140456Y245702D01*
X139730Y243949D01*
Y242051D01*
X140456Y240298D01*
X141798Y238956D01*
X143551Y238230D01*
X143974D01*
X146410Y235793D01*
Y175590D01*
X116103D01*
X115112Y175393D01*
X114272Y174831D01*
X104031Y164590D01*
X89130D01*
X89084Y164702D01*
X87742Y166044D01*
X85989Y166770D01*
X84091D01*
X82338Y166044D01*
X80996Y164702D01*
X80270Y162949D01*
Y161051D01*
X80996Y159298D01*
X82338Y157956D01*
X82450Y157910D01*
Y86113D01*
X80061Y83723D01*
X79949Y83770D01*
X78051D01*
X76298Y83044D01*
X74956Y81702D01*
X74230Y79949D01*
Y78051D01*
X74956Y76298D01*
X76298Y74956D01*
X78051Y74230D01*
X79949D01*
X81702Y74956D01*
X83044Y76298D01*
X83770Y78051D01*
Y79949D01*
X83723Y80061D01*
X86871Y83209D01*
X87433Y84049D01*
X87630Y85040D01*
Y157910D01*
X87742Y157956D01*
X89084Y159298D01*
X89130Y159410D01*
X105104D01*
X106095Y159607D01*
X106935Y160169D01*
X117176Y170410D01*
X147927D01*
X149169Y169169D01*
X150009Y168607D01*
X151000Y168410D01*
X162910D01*
X162956Y168298D01*
X164298Y166956D01*
X166051Y166230D01*
X167949D01*
X169702Y166956D01*
X171044Y168298D01*
X171770Y170051D01*
Y171949D01*
X171044Y173702D01*
X169702Y175044D01*
X167949Y175770D01*
X166051D01*
X164298Y175044D01*
X162956Y173702D01*
X162910Y173590D01*
X152073D01*
X151590Y174073D01*
Y227295D01*
X153936Y228267D01*
X156251Y225953D01*
X157091Y225391D01*
X158082Y225194D01*
X211143D01*
X215569Y220768D01*
X215230Y219949D01*
Y218051D01*
X215956Y216298D01*
X217298Y214956D01*
X219051Y214230D01*
X220949D01*
X222702Y214956D01*
X224044Y216298D01*
X224770Y218051D01*
Y219949D01*
X224044Y221702D01*
X222702Y223044D01*
X220949Y223770D01*
X219893D01*
X214047Y229615D01*
X213207Y230177D01*
X212216Y230374D01*
X159155D01*
X148745Y240784D01*
X149270Y242051D01*
Y243949D01*
X148544Y245702D01*
X147202Y247044D01*
X145449Y247770D01*
D02*
G37*
G36*
X277020Y206615D02*
X272885D01*
Y202480D01*
X273199D01*
X274952Y203206D01*
X276294Y204548D01*
X277020Y206301D01*
Y206615D01*
D02*
G37*
G36*
X271615D02*
X267480D01*
Y206301D01*
X268206Y204548D01*
X269548Y203206D01*
X271301Y202480D01*
X271615D01*
Y206615D01*
D02*
G37*
G36*
X263520D02*
X259385D01*
Y202480D01*
X259699D01*
X261452Y203206D01*
X262794Y204548D01*
X263520Y206301D01*
Y206615D01*
D02*
G37*
G36*
X258115D02*
X253980D01*
Y206301D01*
X254706Y204548D01*
X256048Y203206D01*
X257801Y202480D01*
X258115D01*
Y206615D01*
D02*
G37*
G36*
X276050Y199888D02*
X269185D01*
Y194385D01*
X282062D01*
X281721Y196099D01*
X280390Y198090D01*
X278399Y199421D01*
X276050Y199888D01*
D02*
G37*
G36*
X267915D02*
X261050D01*
X258701Y199421D01*
X256710Y198090D01*
X255379Y196099D01*
X255038Y194385D01*
X267915D01*
Y199888D01*
D02*
G37*
G36*
X301715D02*
X298350D01*
X296001Y199421D01*
X294010Y198090D01*
X292679Y196099D01*
X292338Y194385D01*
X301715D01*
Y199888D01*
D02*
G37*
G36*
Y193115D02*
X292338D01*
X292679Y191401D01*
X294010Y189410D01*
X296001Y188079D01*
X298350Y187612D01*
X301715D01*
Y193115D01*
D02*
G37*
G36*
X282062Y193115D02*
X269185D01*
Y187612D01*
X276050D01*
X278399Y188079D01*
X280390Y189410D01*
X281721Y191401D01*
X282062Y193115D01*
D02*
G37*
G36*
X267915D02*
X255038D01*
X255379Y191401D01*
X256710Y189410D01*
X258701Y188079D01*
X261050Y187612D01*
X267915D01*
Y193115D01*
D02*
G37*
G36*
X279124Y118945D02*
X277226D01*
X275473Y118219D01*
X274131Y116877D01*
X273405Y115124D01*
Y113226D01*
X273451Y113114D01*
X264967Y104630D01*
X219090D01*
X219044Y104742D01*
X217702Y106084D01*
X215949Y106810D01*
X214051D01*
X212298Y106084D01*
X210956Y104742D01*
X210230Y102989D01*
Y101091D01*
X210956Y99338D01*
X212298Y97996D01*
X214051Y97270D01*
X215949D01*
X217702Y97996D01*
X219044Y99338D01*
X219090Y99450D01*
X266040D01*
X267031Y99647D01*
X267871Y100209D01*
X277114Y109452D01*
X277226Y109405D01*
X279124D01*
X280877Y110131D01*
X282219Y111473D01*
X282945Y113226D01*
Y115124D01*
X282219Y116877D01*
X280877Y118219D01*
X279124Y118945D01*
D02*
G37*
%LPD*%
D14*
X92000Y79000D02*
Y98000D01*
X80000Y67000D02*
X92000Y79000D01*
X66000Y101000D02*
Y221000D01*
X88000Y243000D01*
X85040Y162000D02*
X105104D01*
X85040Y85040D02*
Y162000D01*
X143000Y242866D02*
Y243000D01*
X79000Y79000D02*
X85040Y85040D01*
X273972Y258500D02*
X279000Y253472D01*
X272292Y215750D02*
X279000Y222458D01*
Y253472D01*
X272250Y215750D02*
X272292D01*
X212216Y227784D02*
X220000Y220000D01*
Y219000D02*
Y220000D01*
X158082Y227784D02*
X212216D01*
X149000Y236866D02*
X158082Y227784D01*
X143000Y242866D02*
X149000Y236866D01*
X151000Y171000D02*
X167000D01*
X149000Y173000D02*
X151000Y171000D01*
X149000Y173000D02*
Y236866D01*
X116103Y173000D02*
X149000D01*
X105104Y162000D02*
X116103Y173000D01*
X205000Y250000D02*
Y276000D01*
X195000Y240000D02*
X205000Y250000D01*
X272208Y232750D02*
X272250D01*
X266210Y238748D02*
X272208Y232750D01*
X259400Y241500D02*
X259779Y241121D01*
X263879D01*
X266210Y238748D02*
Y238790D01*
X263879Y241121D02*
X266210Y238790D01*
X259400Y258500D02*
X273972D01*
X259400Y216000D02*
X272900D01*
X266040Y102040D02*
X278175Y114175D01*
X215000Y102040D02*
X266040D01*
D61*
X272250Y207250D02*
D03*
Y266750D02*
D03*
X258750D02*
D03*
Y207250D02*
D03*
Y215750D02*
D03*
Y224250D02*
D03*
Y232750D02*
D03*
Y241250D02*
D03*
Y249750D02*
D03*
Y258250D02*
D03*
X272250D02*
D03*
Y249750D02*
D03*
Y241250D02*
D03*
Y232750D02*
D03*
Y224250D02*
D03*
Y215750D02*
D03*
X92000Y98000D02*
D03*
X80000Y67000D02*
D03*
X85040Y162000D02*
D03*
X88000Y243000D02*
D03*
X79000Y79000D02*
D03*
X220000Y219000D02*
D03*
X144500Y243000D02*
D03*
X167000Y171000D02*
D03*
X205000Y276000D02*
D03*
X195000Y240000D02*
D03*
X66000Y101000D02*
D03*
X215000Y102040D02*
D03*
X278175Y114175D02*
D03*
D62*
X268550Y280250D02*
D03*
Y193750D02*
D03*
D63*
X302350Y280250D02*
D03*
Y193750D02*
D03*
M02*
