G04*
G04 #@! TF.GenerationSoftware,Altium Limited,Altium Designer,26.3.0 (6)*
G04*
G04 Layer_Color=32768*
%FSLAX44Y44*%
%MOMM*%
G71*
G04*
G04 #@! TF.SameCoordinates,2AEB3867-C50B-4920-A8BC-998893CE9B29*
G04*
G04*
G04 #@! TF.FilePolarity,Positive*
G04*
G01*
G75*
%ADD13C,0.1000*%
%ADD14C,0.2540*%
%ADD16C,0.0500*%
D13*
X77000Y96500D02*
Y105500D01*
X72500Y101000D02*
X81500D01*
X72500Y143000D02*
X81500D01*
X77000Y138500D02*
Y147500D01*
X141500Y181000D02*
X150500D01*
X146000Y176500D02*
Y185500D01*
X136875Y287040D02*
X146875D01*
X141875Y282040D02*
Y292040D01*
X50500Y87000D02*
X59500D01*
X55000Y82500D02*
Y91500D01*
X110500Y243000D02*
X119500D01*
X115000Y238500D02*
Y247500D01*
X25000Y132500D02*
Y141500D01*
X20500Y137000D02*
X29500D01*
X230000Y73500D02*
Y82500D01*
X225500Y78000D02*
X234500D01*
X210000Y73500D02*
Y82500D01*
X205500Y78000D02*
X214500D01*
X144000Y52250D02*
Y61750D01*
X139250Y57000D02*
X148750D01*
X97000Y73500D02*
Y82500D01*
X92500Y78000D02*
X101500D01*
X181000Y52250D02*
Y61750D01*
X176250Y57000D02*
X185750D01*
X21000Y82500D02*
Y91500D01*
X16500Y87000D02*
X25500D01*
X38000Y82500D02*
Y91500D01*
X33500Y87000D02*
X42500D01*
X94000Y111500D02*
Y120500D01*
X89500Y116000D02*
X98500D01*
X97000Y144500D02*
Y153500D01*
X92500Y149000D02*
X101500D01*
X161000Y54500D02*
Y63500D01*
X156500Y59000D02*
X165500D01*
X86000Y175500D02*
Y184500D01*
X81500Y180000D02*
X90500D01*
X103000Y182500D02*
Y191500D01*
X98500Y187000D02*
X107500D01*
X181500Y172000D02*
X190500D01*
X186000Y167500D02*
Y176500D01*
X225000Y226500D02*
Y235500D01*
X220500Y231000D02*
X229500D01*
X235500Y276000D02*
X244500D01*
X240000Y271500D02*
Y280500D01*
X232000Y242500D02*
Y251500D01*
X227500Y247000D02*
X236500D01*
X177500Y289000D02*
X186500D01*
X182000Y284500D02*
Y293500D01*
X116000Y306500D02*
Y315500D01*
X111500Y311000D02*
X120500D01*
X143500Y306000D02*
Y316000D01*
X138500Y311000D02*
X148500D01*
X110500Y287000D02*
X119500D01*
X115000Y282500D02*
Y291500D01*
X288500Y316500D02*
X297500D01*
X293000Y312000D02*
Y321000D01*
X288500Y299000D02*
X297500D01*
X293000Y294500D02*
Y303500D01*
X258500Y174000D02*
X267500D01*
X263000Y169500D02*
Y178500D01*
X258500Y154000D02*
X267500D01*
X263000Y149500D02*
Y158500D01*
D14*
X3000Y156000D02*
Y216000D01*
Y156000D02*
X33000D01*
Y216000D01*
X3000D02*
X33000D01*
D16*
X136750Y183250D02*
Y203250D01*
X112750Y183250D02*
X136750D01*
X112750D02*
Y203250D01*
X136750D01*
X101500Y210000D02*
Y330000D01*
X36500Y210000D02*
X101500D01*
X36500D02*
Y330000D01*
X101500D01*
X69000Y116000D02*
X85000D01*
X69000Y86000D02*
X85000D01*
Y116000D01*
X69000Y86000D02*
Y116000D01*
X85000Y128000D02*
Y158000D01*
X69000Y128000D02*
Y158000D01*
X85000D01*
X69000Y128000D02*
X85000D01*
X154000Y166000D02*
Y196000D01*
X138000Y166000D02*
Y196000D01*
X154000D01*
X138000Y166000D02*
X154000D01*
X192300Y44000D02*
Y54000D01*
X218300D01*
Y44000D02*
Y54000D01*
X192300Y44000D02*
X218300D01*
X139300Y31000D02*
Y41000D01*
X165300D01*
Y31000D02*
Y41000D01*
X139300Y31000D02*
X165300D01*
X124375Y276040D02*
Y298040D01*
X159375Y276040D02*
Y298040D01*
X124375D02*
X159375D01*
X124375Y276040D02*
X159375D01*
X153000Y272000D02*
X187000D01*
X153000Y246000D02*
X187000D01*
Y272000D01*
X153000Y246000D02*
Y272000D01*
X63000Y72000D02*
Y102000D01*
X47000Y72000D02*
Y102000D01*
X63000D01*
X47000Y72000D02*
X63000D01*
X102000Y235000D02*
Y251000D01*
X128000Y235000D02*
Y251000D01*
X102000D02*
X128000D01*
X102000Y235000D02*
X128000D01*
X111100Y165000D02*
Y181000D01*
X136100D01*
Y165000D02*
Y181000D01*
X111100Y165000D02*
X136100D01*
X242000Y83000D02*
Y133000D01*
Y83000D02*
X298000D01*
Y133000D01*
X242000D02*
X298000D01*
X17000Y122000D02*
X33000D01*
X17000Y152000D02*
X33000D01*
X17000Y122000D02*
Y152000D01*
X33000Y122000D02*
Y152000D01*
X222000Y63000D02*
X238000D01*
X222000Y93000D02*
X238000D01*
X222000Y63000D02*
Y93000D01*
X238000Y63000D02*
Y93000D01*
X202000Y63000D02*
X218000D01*
X202000Y93000D02*
X218000D01*
X202000Y63000D02*
Y93000D01*
X218000Y63000D02*
Y93000D01*
X136000Y69500D02*
X152000D01*
X136000Y44500D02*
X152000D01*
Y69500D01*
X136000Y44500D02*
Y69500D01*
X15000Y69500D02*
X135000D01*
Y4500D02*
Y69500D01*
X15000Y4500D02*
X135000D01*
X15000D02*
Y69500D01*
X84000Y70000D02*
X110000D01*
X84000Y86000D02*
X110000D01*
Y70000D02*
Y86000D01*
X84000Y70000D02*
Y86000D01*
X173000Y69500D02*
X189000D01*
X173000Y44500D02*
X189000D01*
Y69500D01*
X173000Y44500D02*
Y69500D01*
X13000Y72000D02*
X29000D01*
X13000Y102000D02*
X29000D01*
X13000Y72000D02*
Y102000D01*
X29000Y72000D02*
Y102000D01*
X30000Y72000D02*
X46000D01*
X30000Y102000D02*
X46000D01*
X30000Y72000D02*
Y102000D01*
X46000Y72000D02*
Y102000D01*
X65500Y117000D02*
Y127000D01*
X84500D01*
Y117000D02*
Y127000D01*
X65500Y117000D02*
X84500D01*
X86000Y101000D02*
X102000D01*
X86000Y131000D02*
X102000D01*
X86000Y101000D02*
Y131000D01*
X102000Y101000D02*
Y131000D01*
X89000Y134000D02*
X105000D01*
X89000Y164000D02*
X105000D01*
X89000Y134000D02*
Y164000D01*
X105000Y134000D02*
Y164000D01*
X153000Y44000D02*
X169000D01*
X153000Y74000D02*
X169000D01*
X153000Y44000D02*
Y74000D01*
X169000Y44000D02*
Y74000D01*
X78000Y195000D02*
X94000D01*
X78000Y165000D02*
X94000D01*
Y195000D01*
X78000Y165000D02*
Y195000D01*
X95000Y172000D02*
X111000D01*
X95000Y202000D02*
X111000D01*
X95000Y172000D02*
Y202000D01*
X111000Y172000D02*
Y202000D01*
X171000Y164000D02*
Y180000D01*
X201000Y164000D02*
Y180000D01*
X171000D02*
X201000D01*
X171000Y164000D02*
X201000D01*
X210000Y223000D02*
X240000D01*
X210000Y239000D02*
X240000D01*
Y223000D02*
Y239000D01*
X210000Y223000D02*
Y239000D01*
X232000Y261000D02*
Y291000D01*
X248000Y261000D02*
Y291000D01*
X232000Y261000D02*
X248000D01*
X232000Y291000D02*
X248000D01*
X217000Y239000D02*
X247000D01*
X217000Y255000D02*
X247000D01*
Y239000D02*
Y255000D01*
X217000Y239000D02*
Y255000D01*
X209000Y295000D02*
Y315000D01*
X257000D01*
Y295000D02*
Y315000D01*
X209000Y295000D02*
X257000D01*
X174000Y274000D02*
Y304000D01*
X190000Y274000D02*
Y304000D01*
X174000Y274000D02*
X190000D01*
X174000Y304000D02*
X190000D01*
X208000Y255500D02*
X228000D01*
X208000D02*
Y293000D01*
X228000D01*
Y255500D02*
Y293000D01*
X103000Y319000D02*
X129000D01*
X103000Y303000D02*
X129000D01*
X103000D02*
Y319000D01*
X129000Y303000D02*
Y319000D01*
X128500Y319000D02*
X158500D01*
X128500Y303000D02*
X158500D01*
X128500D02*
Y319000D01*
X158500Y303000D02*
Y319000D01*
X107000Y272000D02*
Y302000D01*
X123000Y272000D02*
Y302000D01*
X107000Y272000D02*
X123000D01*
X107000Y302000D02*
X123000D01*
X306000Y308500D02*
Y324500D01*
X280000Y308500D02*
Y324500D01*
Y308500D02*
X306000D01*
X280000Y324500D02*
X306000D01*
Y291000D02*
Y307000D01*
X280000Y291000D02*
Y307000D01*
Y291000D02*
X306000D01*
X280000Y307000D02*
X306000D01*
X276000Y166000D02*
Y182000D01*
X250000Y166000D02*
Y182000D01*
Y166000D02*
X276000D01*
X250000Y182000D02*
X276000D01*
Y146000D02*
Y162000D01*
X250000Y146000D02*
Y162000D01*
Y146000D02*
X276000D01*
X250000Y162000D02*
X276000D01*
M02*
