M48
;Layer_Color=9474304
;FILE_FORMAT=4:4
METRIC,LZ
;TYPE=PLATED
T01F00S00C0.3000
T02F00S00C0.4000
%
T01
X0008Y00067
X00079Y00079
X00092Y00098
X00066Y00101
X0008504Y00162
X00088Y00243
X001445
X00195Y0024
X00205Y00276
X0022Y00219
X00167Y00171
X00215Y0010204
X00278175Y00114175
T02
X0025875Y0020725
Y0021575
Y0022425
Y0023275
Y0024125
Y0024975
Y0025825
Y0026675
X0027225
Y0025825
Y0024975
Y0024125
Y0023275
Y0022425
Y0021575
Y0020725
M30
